<?xml version="1.0" encoding="iso-8859-1"?>
<!-- Generator: Adobe Illustrator 19.0.0, SVG Export Plug-In . SVG Version: 6.00 Build 0)  -->
<svg version="1.1" id="Capa_1" xmlns="http://www.w3.org/2000/svg" xmlns:xlink="http://www.w3.org/1999/xlink" x="0px" y="0px"
	 viewBox="0 0 512 512" style="enable-background:new 0 0 512 512;" xml:space="preserve">
<path style="fill:#F0E6DE;" d="M10.25,356v126c0,11.05,8.95,20,20,20c81.762,0,361.47,0,452,0c11.05,0,20-8.95,20-20V356H10.25z"/>
<path style="fill:#BF6015;" d="M502.25,290v66c-18.917,0-473.772,0-492,0v-66C24.125,290,488.375,290,502.25,290z"/>
<g>
	<path style="fill:#57555C;" d="M502.25,270v20c-13.875,0-478.125,0-492,0V110c0-55.23,44.77-100,100-100h66
		c55.23,0,100,44.77,100,100c0,44.18,35.82,80,80,80h66C466.43,190,502.25,225.82,502.25,270z"/>
	<path style="fill:#57555C;" d="M459.25,356v86c-13.99,0-26.01,0-40,0v-86H459.25z"/>
	<path style="fill:#57555C;" d="M379.25,356v86c-13.99,0-26.01,0-40,0v-86H379.25z"/>
	<path style="fill:#57555C;" d="M253.25,356v86c-13.99,0-26.01,0-40,0v-86H253.25z"/>
	<path style="fill:#57555C;" d="M173.25,356v86c-13.99,0-26.01,0-40,0v-86H173.25z"/>
	<path style="fill:#57555C;" d="M93.25,356v86c-13.99,0-26.01,0-40,0v-86H93.25z"/>
</g>
<path d="M116,40c-5.52,0-10,4.48-10,10s4.48,10,10,10s10-4.48,10-10S121.52,40,116,40z"/>
<path d="M176,40h-20c-5.523,0-10,4.477-10,10s4.477,10,10,10h20c27.57,0,50,22.43,50,50c0,5.523,4.477,10,10,10s10-4.477,10-10
	C246,71.402,214.598,40,176,40z"/>
<path d="M30,512h452c16.542,0,30-13.458,30-30c0-10.788,0-203.371,0-212c0-49.626-40.374-90-90-90h-66c-38.598,0-70-31.402-70-70
	C286,49.346,236.654,0,176,0h-66C49.346,0,0,49.346,0,110c0,11.189,0,362.211,0,372C0,498.542,13.458,512,30,512z M143,492H83v-40
	h10c5.523,0,10-4.477,10-10v-76h20v76c0,5.523,4.477,10,10,10h10V492z M63,432v-66h20v66H63z M223,492h-60v-40h10
	c5.523,0,10-4.477,10-10v-76h20v76c0,5.523,4.477,10,10,10h10V492z M143,432v-66h20v66H143z M286,492h-43v-40h10
	c5.523,0,10-4.477,10-10v-76h23V492z M223,432v-66h20v66H223z M349,492h-43V366h23v76c0,5.523,4.477,10,10,10h10V492z M429,492h-60
	v-40h10c5.523,0,10-4.477,10-10v-76h20v76c0,5.523,4.477,10,10,10h10V492z M349,432v-66h20v66H349z M492,482c0,5.514-4.486,10-10,10
	h-33v-40h10c5.523,0,10-4.477,10-10v-76h23V482z M429,432v-66h20v66H429z M20,110c0-49.626,40.374-90,90-90h66
	c49.626,0,90,40.374,90,90s40.374,90,90,90h66c38.598,0,70,31.402,70,70v10H20V110z M20,300h472v46H20V300z M20,366h23v76
	c0,5.523,4.477,10,10,10h10v40H30c-5.514,0-10-4.486-10-10V366z"/>
<g>
</g>
<g>
</g>
<g>
</g>
<g>
</g>
<g>
</g>
<g>
</g>
<g>
</g>
<g>
</g>
<g>
</g>
<g>
</g>
<g>
</g>
<g>
</g>
<g>
</g>
<g>
</g>
<g>
</g>
</svg>
